<svg id="Capa_1" enable-background="new 0 0 511.848 511.848" height="512" viewBox="0 0 511.848 511.848" width="512" xmlns="http://www.w3.org/2000/svg" xmlns:xlink="http://www.w3.org/1999/xlink"><linearGradient id="SVGID_1_" gradientUnits="userSpaceOnUse" x1="156.793" x2="305.286" y1="355.055" y2="206.562"><stop offset="0" stop-color="#5558ff"/><stop offset="1" stop-color="#00c0ff"/></linearGradient><g><g><path d="m507.454 408.731-121.066-121.066c-5.856-5.858-15.354-5.858-21.213 0l-42.427 42.427c-5.85 5.849-15.363 5.849-21.213 0l-119.779-119.78c-2.833-2.833-4.394-6.6-4.394-10.606s1.561-7.773 4.394-10.607l42.426-42.427c5.858-5.858 5.858-15.355 0-21.213l-121.066-121.066c-5.857-5.857-15.355-5.858-21.213 0l-42.424 42.424c-.001.001-.002.002-.002.002-.001.001-.002.002-.003.003-52.633 52.637-52.632 138.28.003 190.916l234.632 234.632c26.318 26.318 60.889 39.477 95.46 39.477 34.57 0 69.141-13.159 95.459-39.477l42.427-42.426c2.813-2.813 4.394-6.628 4.394-10.607s-1.581-7.793-4.395-10.606zm-414.944-372.518 99.853 99.853-21.213 21.213-99.853-99.853zm202.812 414.944-234.632-234.632c-37.338-37.339-40.615-96.03-9.845-137.125l100.897 100.897c-2.864 5.983-4.379 12.578-4.379 19.408 0 12.02 4.681 23.321 13.181 31.82l119.779 119.779c13.827 13.827 34.485 16.748 51.208 8.782l100.917 100.917c-41.096 30.771-99.788 27.492-137.126-9.846zm159.099-10.606-99.853-99.853 21.214-21.213 99.854 99.853z" fill="url(#SVGID_1_)"/></g></g></svg>